<?xml version="1.0" encoding="UTF-8" standalone="no"?>
<!DOCTYPE svg PUBLIC "-//W3C//DTD SVG 1.1//EN" "http://www.w3.org/Graphics/SVG/1.1/DTD/svg11.dtd">
<svg width="100%" height="100%" viewBox="0 0 50 50" version="1.1" xmlns="http://www.w3.org/2000/svg" xmlns:xlink="http://www.w3.org/1999/xlink" xml:space="preserve" xmlns:serif="http://www.serif.com/" style="fill-rule:evenodd;clip-rule:evenodd;stroke-linejoin:round;stroke-miterlimit:2;">
    <g transform="matrix(0.097561,0,0,0.121951,4.20732,22.0122)">
        <rect x="3" y="4" width="41" height="41"/>
    </g>
    <g transform="matrix(0.097561,0,0,0.121951,10.374,22.0122)">
        <rect x="3" y="4" width="41" height="41"/>
    </g>
    <g transform="matrix(0.097561,0,0,0.121951,16.5407,22.0122)">
        <rect x="3" y="4" width="41" height="41"/>
    </g>
    <g transform="matrix(0.097561,0,0,0.121951,22.7073,22.0122)">
        <rect x="3" y="4" width="41" height="41"/>
    </g>
    <g transform="matrix(0.097561,0,0,0.121951,28.874,22.0122)">
        <rect x="3" y="4" width="41" height="41"/>
    </g>
    <g transform="matrix(0.097561,0,0,0.121951,35.0407,22.0122)">
        <rect x="3" y="4" width="41" height="41"/>
    </g>
    <g transform="matrix(0.097561,0,0,0.121951,41.2073,22.0122)">
        <rect x="3" y="4" width="41" height="41"/>
    </g>
</svg>
